<svg id="Layer_1" data-name="Layer 1" xmlns="http://www.w3.org/2000/svg" viewBox="0 0 634 351.78"><defs><style>.cls-1{fill:#f61a13;}.cls-2{fill:#fcfcfc;}.cls-3{fill:#274c99;}.cls-4{fill:#81097d;}.cls-5{fill:#fff;}</style></defs><title>BridgeAsia-logo</title><path class="cls-1" d="M740.55,91.58c-.16,2.14-.48,4.28-.48,6.42q0,104.24,0,208.45v6.78H717.72V307q0-104.47,0-208.95c0-2.16-.1-4.32-.16-6.49Z" transform="translate(-107.55 -91.58)"/><path class="cls-2" d="M107.55,361.58l31.92-.15c8.1,0,14.92,2.4,18,10.58,3,8-.17,14.19-6.7,19.06,10.76,6.39,13.74,15,8.6,24.56-2.59,4.84-6.61,8.51-12,8.71-13.25.49-26.54.21-39.81.24Zm13.83,52.23c6.74,0,13.16.19,19.57-.07,4.2-.16,6.71-2.75,7-7s-1.6-7.91-6-8.44l-20.6-.39ZM121,386.33c6,0,12.1.32,17.83-.08,3.71-.26,6.58-2.34,6.76-6.62.15-3.59-1.36-6.63-5-6.9-6.34-.46-12.74-.13-19.59-.13,0,9.14,0,9.14,0,9.14Z" transform="translate(-107.55 -91.58)"/><path class="cls-2" d="M741.55,424.58l-9.9.33c-2-1.26-3-5.2-3-5.2-4.63,4.37-12.68,7.48-19.5,6.08-6.52-1.33-10.67-5.73-11.3-12.2a12.84,12.84,0,0,1,9.24-13.75c5.22-1.65,10.66-2.56,16-4,1.25-.34,3.3-.77,3.24-2.23a7.77,7.77,0,0,0-1.8-4.82c-2.27-2.29-9.58-2.15-11.56.53a11.91,11.91,0,0,0-2.27,4.19l-10.86-2.44c.84-6.55,4.76-11.47,11.26-12.31a68.28,68.28,0,0,1,17.78.1c6.19.85,9.41,5.13,9.66,11.56.29,7.48-.14,15,.32,22.45C738.84,412.88,739.68,420.52,741.55,424.58Zm-15.43-21.2c-3.75.87-7.15,1.5-10.47,2.46-3.49,1-6.3,3.06-4.85,7.15,1.33,3.77,4.48,5.07,8.43,4C725.22,415.48,727.12,411.86,726.12,403.38Z" transform="translate(-107.55 -91.58)"/><path class="cls-3" d="M107.55,199.58h21.68v44H107.55Z" transform="translate(-107.55 -91.58)"/><path class="cls-1" d="M641.37,136h21.37V331.16H641.37Z" transform="translate(-107.55 -91.58)"/><path class="cls-1" d="M565.76,100.44h21.38V268.3H565.76Z" transform="translate(-107.55 -91.58)"/><path class="cls-4" d="M488.83,145.34H510.3V286.06H488.83Z" transform="translate(-107.55 -91.58)"/><path class="cls-4" d="M434.4,313.45H413.12V200.2H434.4Z" transform="translate(-107.55 -91.58)"/><path class="cls-4" d="M336.4,145.32h21.28v86.15H336.4Z" transform="translate(-107.55 -91.58)"/><path class="cls-2" d="M383.71,434.23c6.46-.1,8.87-2.6,9-9.12,0-1.8,0-3.6,0-5.93-2.63,1.74-4.64,3.46-6.94,4.53a16.86,16.86,0,0,1-21.44-6.48c-6.07-9.86-6.17-20.4-.75-30.4,5.82-10.75,17.9-11.81,29.8-3,.13-1.83.22-3.14.33-4.77h10.84c.19.24.58.5.58.75-.13,16.29.05,32.59-.59,48.86-.32,8.23-4.76,13.17-12.86,14.2a67.5,67.5,0,0,1-20.21-.65c-6.88-1.24-10.09-6.82-9.48-14.15,3.91.47,7.82.87,11.71,1.46C373.71,429.54,374.2,434.37,383.71,434.23Zm-10.12-39.08a24.09,24.09,0,0,0-.27,11.23,16.33,16.33,0,0,0,.53,2c1.31,3.91,4.08,6.49,8.39,6.62a9.16,9.16,0,0,0,9.14-5.69,19.83,19.83,0,0,0-.05-16.41,8.82,8.82,0,0,0-8.74-5.43,8.54,8.54,0,0,0-8.4,5.85A17.51,17.51,0,0,0,373.59,395.15Z" transform="translate(-107.55 -91.58)"/><path class="cls-2" d="M517.84,410.58l-3.62,10.18-1.33,4.43s-10.69-.11-14.25-.11c3.55-9.22,6.79-17.68,10.07-26.13,4.32-11.15,8.8-22.25,12.95-33.46l1.39-4.16h13.88l1.74,4.07c7.22,18,16.58,40.72,24.19,59.64-4.69,0-14.18-.17-14.18-.17l-1.5-3.43-5.36-10.94-11,.08Zm20.83-11-8.5-22.89c-3,8.35-5.52,15.42-8.2,22.89Z" transform="translate(-107.55 -91.58)"/><path class="cls-2" d="M319.49,383.46V361.75h11.87v63H320.74l0-6.18s-2.15,2.3-2.44,2.56c-11.49,10.62-28.49,4-31-12a44.66,44.66,0,0,1,.75-17.69c3.39-13,17.52-17.55,28.61-9.93C317.28,381.88,317.92,382.35,319.49,383.46Zm-19.55,11.91a27.14,27.14,0,0,0-.51,9.84,26.41,26.41,0,0,0,.56,3.22c1.14,4.65,4.17,7.55,9.06,7.92a9.18,9.18,0,0,0,9.24-7.63,45.88,45.88,0,0,0-.14-14.23c-.71-4.17-3.9-6.87-8.53-7s-7.6,2.2-9.17,6.28A13.52,13.52,0,0,0,299.94,395.37Z" transform="translate(-107.55 -91.58)"/><path class="cls-3" d="M282.16,170.52H260.49v-70h21.67Z" transform="translate(-107.55 -91.58)"/><path class="cls-2" d="M475.88,405.68H445.82c.38,7.6,4.6,11.87,10.7,10.94h0a7.62,7.62,0,0,0,4.5-2.56L464,410.7a.12.12,0,0,1,.13,0l10.72,2.09c-2.4,8.83-10.27,14-20.53,13.5-8.33-.42-15.5-3.13-19-11.36-4.17-9.92-4.24-19.94,2.16-29,7.83-11.06,25.68-11.07,33.72-.24C475.5,391.41,476.22,398.12,475.88,405.68Zm-12.52-8.14c-.46-6.76-3.65-10.25-8.85-10.1s-8.43,3.9-8.24,10.1Z" transform="translate(-107.55 -91.58)"/><path class="cls-3" d="M205.15,205.4c-1.67.08-2.83.17-4,.18H183.81V145.44h21.34Z" transform="translate(-107.55 -91.58)"/><path class="cls-2" d="M584.14,411.88c4.06-.62,8.18-1.3,11.8-1.85,4.43,6.55,8.44,8.47,14.61,6.46a4.2,4.2,0,0,0,1-7.35,3.73,3.73,0,0,0-.75-.37c-5.19-1.73-10.63-2.72-15.81-4.49-6.16-2.11-9.29-6.59-9.28-12.26a13.5,13.5,0,0,1,9.53-12.73,32.48,32.48,0,0,1,21.56.23c4.66,1.65,7.61,5.09,8.92,10.63-3.22.61-7.63,1.5-10.68,1.81l-1.65-1.63c-3.29-3.55-9.5-4.88-13.66-2.57-.9.5-2.11,1.75-2,2.47,0,0-.45,1.95,2.21,2.85s5.72,1.71,8.58,2.56c3.67,1.07,7.47,1.85,10.95,3.36,8.3,3.57,10.74,12.63,5.27,19.81-5.93,7.78-14.51,7.88-23.16,7.06-7.87-.75-13.87-4.35-16.85-12.05C584.61,413.37,584.14,411.88,584.14,411.88Z" transform="translate(-107.55 -91.58)"/><path class="cls-2" d="M203.39,424.76H191V379.05h11.23l.06,4.78c7.18-6.62,11.59-7.73,18.52-3.35l-3.49,10.11c-1.07-.36-1.92-.68-2.79-.94-4.73-1.42-9.07-.26-10.67,3.78a8.17,8.17,0,0,0-.5,3l0,17.69S203.39,421,203.39,424.76Z" transform="translate(-107.55 -91.58)"/><path class="cls-2" d="M245.72,379h11.65v45.78H245.72Z" transform="translate(-107.55 -91.58)"/><path class="cls-2" d="M669.3,379.06v45.73H657.65V379.06Z" transform="translate(-107.55 -91.58)"/><path class="cls-5" d="M657.64,372.38V361.71h11.63v10.67Z" transform="translate(-107.55 -91.58)"/><path class="cls-2" d="M257.43,372.59H245.76V361.84h11.67Z" transform="translate(-107.55 -91.58)"/></svg>