<svg xmlns="http://www.w3.org/2000/svg" width="1367" height="360" fill="none" viewBox="0 0 1367 360">
    <path fill="#fff" d="M452.1 174.8c-9.2-5.2-16.2-12.5-21.1-21.9-4.9-9.4-7.3-20.4-7.3-32.8 0-12.4 2.4-23.4 7.3-32.8 4.9-9.4 11.9-16.7 21.1-21.9 9.2-5.1 19.9-7.7 32.2-7.7 8.1 0 15.8 1.2 23.2 3.7 7.4 2.5 13.4 5.9 18.1 10.3L517 90.8c-5.3-4-10.6-7-15.8-8.8-5.2-1.8-10.7-2.8-16.3-2.8-10.8 0-19.2 3.5-25 10.4-5.8 6.9-8.7 17.1-8.7 30.4 0 13.4 2.9 23.5 8.7 30.5 5.8 7 14.1 10.5 25 10.5 5.6 0 11.1-.9 16.3-2.8 5.2-1.8 10.5-4.8 15.8-8.8l8.6 19.2c-4.7 4.4-10.8 7.8-18.1 10.3-7.4 2.5-15.1 3.7-23.2 3.7-12.3 0-23.1-2.6-32.2-7.8zM557.6 177c-6.8-3.6-12-8.8-15.7-15.4-3.7-6.6-5.5-14.4-5.5-23.4 0-9 1.8-16.8 5.5-23.4 3.7-6.6 8.9-11.7 15.7-15.3 6.8-3.6 14.7-5.4 23.7-5.4s16.9 1.8 23.7 5.4c6.8 3.6 12 8.7 15.7 15.3 3.7 6.6 5.5 14.4 5.5 23.4 0 9-1.8 16.8-5.5 23.4-3.7 6.6-8.9 11.7-15.7 15.4-6.8 3.6-14.7 5.4-23.7 5.4s-16.9-1.8-23.7-5.4zm42.7-38.8c0-8.2-1.6-14.3-4.9-18.3-3.3-4-8-6-14.1-6-12.7 0-19 8.1-19 24.4 0 16.2 6.3 24.4 19 24.4 12.6-.1 19-8.3 19-24.5zM717.9 103c5 5.9 7.4 14.9 7.4 26.9V181h-26.1v-49.9c0-5.8-1.1-10-3.2-12.6-2.1-2.6-5.4-4-9.9-4-5.4 0-9.8 1.7-13 5.2-3.3 3.5-4.9 8.1-4.9 13.8V181h-26.1V96.2h25.4v12.1c3-4.6 6.9-8.1 11.7-10.5 4.8-2.4 10.2-3.6 16.2-3.6 10-.1 17.6 2.9 22.5 8.8zM777.7 96.2H799v19.5h-21.3V181h-26.1v-65.3h-16.1V96.2h16.1c.2-12 3.7-21 10.5-27 6.7-6 17-9.5 30.8-10.3l9.5-.5 1.6 19.2-8.1.3c-6.7.2-11.4 1.5-14.1 3.7-2.7 2.2-4.1 6-4.1 11.1v3.5zM885.4 143.5h-55.3c.8 6.8 3 11.7 6.7 14.8 3.6 3.1 8.8 4.6 15.5 4.6 4.4 0 8.7-.7 13-2.2 4.3-1.4 8.3-3.5 11.8-6.1l6.9 17.5c-4.1 3.2-9.2 5.8-15.1 7.6-5.9 1.8-11.9 2.8-17.9 2.8-14.3 0-25.5-3.9-33.8-11.8-8.2-7.9-12.4-18.6-12.4-32.2 0-8.6 1.8-16.3 5.4-23 3.6-6.7 8.5-11.9 14.9-15.6 6.3-3.7 13.5-5.6 21.6-5.6 11.9 0 21.3 3.9 28.3 11.6 7 7.7 10.5 18.2 10.5 31.4v6.2h-.1zm-49.9-26.7c-2.9 3.2-4.8 7.8-5.4 13.7h33.4c-.3-6.1-1.9-10.7-4.6-13.8-2.7-3.1-6.5-4.7-11.5-4.7-5 .1-8.9 1.7-11.9 4.8zM961.8 115.6l-14.7 1.6c-7.3.7-12.4 2.7-15.4 6.1-3 3.4-4.5 7.9-4.5 13.6V181h-26.1V96.2h25.1v14.3c4.3-9.8 13.1-15.1 26.4-16.1l7.6-.5 1.6 21.7zM1045 143.5h-55.3c.8 6.8 3 11.7 6.7 14.8 3.6 3.1 8.8 4.6 15.5 4.6 4.4 0 8.7-.7 13-2.2 4.3-1.4 8.3-3.5 11.8-6.1l6.9 17.5c-4.1 3.2-9.2 5.8-15.1 7.6-5.9 1.8-11.9 2.8-17.9 2.8-14.3 0-25.5-3.9-33.8-11.8-8.2-7.9-12.4-18.6-12.4-32.2 0-8.6 1.8-16.3 5.4-23 3.6-6.7 8.5-11.9 14.9-15.6 6.3-3.7 13.5-5.6 21.6-5.6 11.9 0 21.3 3.9 28.3 11.6 7 7.7 10.5 18.2 10.5 31.4v6.2h-.1zm-49.8-26.7c-2.9 3.2-4.8 7.8-5.4 13.7h33.4c-.3-6.1-1.9-10.7-4.6-13.8-2.7-3.1-6.5-4.7-11.5-4.7-5 .1-9 1.7-11.9 4.8zM1136.6 103c5 5.9 7.4 14.9 7.4 26.9V181h-26v-49.9c0-5.8-1.1-10-3.2-12.6-2.1-2.6-5.4-4-9.9-4-5.4 0-9.8 1.7-13 5.2-3.3 3.5-4.9 8.1-4.9 13.8V181h-26.1V96.2h25.4v12.1c3-4.6 6.9-8.1 11.7-10.5 4.8-2.4 10.2-3.6 16.2-3.6 9.9-.1 17.5 2.9 22.4 8.8zM1171.4 170.7c-8-7.8-11.9-18.5-11.9-32 0-8.9 1.9-16.7 5.7-23.4 3.8-6.7 9.2-12 16.1-15.6 6.9-3.7 14.9-5.5 24-5.5 6.2 0 12.2 1 18 2.9 5.8 1.9 10.4 4.5 14 7.7l-6.9 17.8c-3.3-2.6-7-4.7-11-6.1-4-1.4-7.9-2.2-11.7-2.2-6.8 0-12.1 2-15.8 6-3.7 4-5.6 10-5.6 18 0 7.9 1.9 14 5.6 18.1 3.7 4.1 9 6.1 15.8 6.1 3.8 0 7.7-.7 11.7-2.2 4-1.4 7.6-3.5 11-6.1l6.9 18c-3.8 3.2-8.6 5.8-14.5 7.6-5.9 1.8-12.1 2.8-18.7 2.8-13.9-.2-24.8-4.1-32.7-11.9zM1325.3 143.5H1270c.8 6.8 3 11.7 6.7 14.8 3.6 3.1 8.8 4.6 15.5 4.6 4.4 0 8.7-.7 13-2.2 4.3-1.4 8.3-3.5 11.8-6.1l6.9 17.5c-4.1 3.2-9.2 5.8-15.1 7.6-5.9 1.8-11.9 2.8-17.9 2.8-14.3 0-25.5-3.9-33.8-11.8-8.2-7.9-12.4-18.6-12.4-32.2 0-8.6 1.8-16.3 5.4-23 3.6-6.7 8.5-11.9 14.9-15.6 6.3-3.7 13.5-5.6 21.6-5.6 11.9 0 21.3 3.9 28.3 11.6 7 7.7 10.5 18.2 10.5 31.4v6.2h-.1zm-49.8-26.7c-2.9 3.2-4.8 7.8-5.4 13.7h33.4c-.3-6.1-1.9-10.7-4.6-13.8-2.7-3.1-6.5-4.7-11.5-4.7-5.1.1-9 1.7-11.9 4.8zM1339.5 153.4h28V181h-28v-27.6zM632.2 258.6c2.7-2.6 5.9-4.6 9.6-5.9 3.6-1.3 7.3-2 11.1-2 3.9 0 7.2.5 9.9 1.4 2.7 1 4.9 2.5 6.6 4.5 1.7 2 2.9 4.6 3.7 7.6.8 3.1 1.2 6.7 1.2 10.9v23.4h-14v-4.9h-.3c-1.2 1.9-3 3.4-5.4 4.5-2.4 1.1-5 1.6-7.8 1.6-1.9 0-3.8-.2-5.8-.7-2-.5-3.8-1.3-5.5-2.4-1.6-1.1-3-2.6-4.1-4.5-1.1-1.9-1.6-4.2-1.6-6.9 0-3.4.9-6.1 2.7-8.1 1.8-2.1 4.2-3.6 7.1-4.8 2.9-1.1 6.1-1.9 9.6-2.2 3.5-.4 7-.6 10.3-.6v-.7c0-2.3-.8-4-2.4-5.1-1.6-1.1-3.6-1.6-6-1.6-2.2 0-4.3.5-6.3 1.4-2 .9-3.7 2.1-5.2 3.4l-7.4-8.3zm28 19.8h-2c-1.7 0-3.4.1-5.1.2-1.7.2-3.2.5-4.6.9-1.3.4-2.4 1.1-3.3 1.9-.9.8-1.3 1.9-1.3 3.3 0 .9.2 1.6.6 2.2.4.6.9 1.1 1.5 1.5.6.4 1.3.6 2.1.8.8.2 1.6.2 2.3.2 3.1 0 5.5-.9 7.1-2.6 1.6-1.7 2.5-4 2.5-6.9v-1.5h.2zM702.2 237.4c0 1.2-.2 2.3-.7 3.3-.5 1-1.1 1.9-1.9 2.7-.8.7-1.7 1.3-2.8 1.8-1.1.4-2.2.7-3.4.7-2.5 0-4.6-.8-6.2-2.5-1.7-1.6-2.5-3.6-2.5-5.9 0-1.1.2-2.2.7-3.2.4-1 1.1-1.9 1.9-2.7.8-.7 1.7-1.4 2.8-1.8 1.1-.5 2.2-.7 3.4-.7 1.2 0 2.3.2 3.4.7 1.1.4 2 1 2.8 1.8.8.7 1.4 1.6 1.9 2.7.3.8.6 1.9.6 3.1zm-16.4 61.2v-46.4h15.3v46.4h-15.3zM713.4 298.6v-70.4H729v70.4h-15.6zM738.401 258.6c2.7-2.6 5.899-4.6 9.599-5.9 3.6-1.3 7.3-2 11.1-2 3.9 0 7.2.5 9.9 1.4 2.7 1 4.9 2.5 6.6 4.5 1.7 2 2.9 4.6 3.7 7.6.8 3.1 1.2 6.7 1.2 10.9v23.4h-14v-4.9h-.299c-1.201 1.9-3.001 3.4-5.401 4.5s-5 1.6-7.8 1.6c-1.9 0-3.799-.2-5.799-.7-2-.5-3.8-1.3-5.5-2.4-1.6-1.1-3.001-2.6-4.101-4.5s-1.6-4.2-1.6-6.9c0-3.4.901-6.1 2.701-8.1 1.8-2.1 4.199-3.6 7.099-4.8 2.9-1.1 6.101-1.9 9.601-2.2 3.5-.4 7-.6 10.3-.6v-.7c0-2.3-.801-4-2.401-5.1-1.6-1.1-3.6-1.6-6-1.6-2.2 0-4.3.5-6.3 1.4-2 .9-3.7 2.1-5.2 3.4l-7.399-8.3zm28.099 19.8h-2c-1.7 0-3.399.1-5.099.2-1.7.2-3.201.5-4.601.9-1.3.4-2.4 1.1-3.3 1.9-.9.8-1.299 1.9-1.299 3.3 0 .9.199 1.6.599 2.2.4.6.9 1.1 1.5 1.5.6.4 1.301.6 2.101.8.8.2 1.599.2 2.3.2 3.1 0 5.499-.9 7.099-2.6 1.6-1.7 2.5-4 2.5-6.9v-1.5h.2zM818.5 298.6v-25.3c0-1.3-.099-2.5-.299-3.7a9.495 9.495 0 0 0-1.101-3.1c-.5-.9-1.2-1.6-2.1-2.1-.9-.5-2-.8-3.4-.8s-2.6.3-3.6.8-1.899 1.3-2.599 2.2c-.7.9-1.2 2-1.5 3.2-.3 1.2-.5 2.5-.5 3.8v25.2H788v-46.4h14.8v6.4h.2c.6-1 1.301-2 2.201-2.9.9-1 2-1.8 3.2-2.5 1.2-.7 2.5-1.2 4-1.7 1.4-.4 2.899-.7 4.599-.7 3.1 0 5.701.6 7.901 1.7s3.899 2.6 5.3 4.3c1.299 1.8 2.299 3.8 2.899 6.1.6 2.3.9 4.6.9 6.9v28.7h-15.5v-.1zM876.901 298.6v-6.1h-.2c-1.5 2.4-3.601 4.2-6.401 5.5-2.8 1.3-5.7 1.9-8.8 1.9-3.5 0-6.599-.7-9.299-2.1-2.7-1.4-5.001-3.2-6.901-5.5-1.9-2.3-3.3-4.9-4.3-7.9s-1.5-6.1-1.5-9.3c0-3.2.5-6.3 1.5-9.3 1-2.9 2.501-5.5 4.401-7.8 1.9-2.2 4.199-4 6.899-5.3 2.7-1.3 5.701-2 9.101-2 3.4 0 6.299.7 8.699 2 2.4 1.3 4.2 2.7 5.5 4.3h.2v-29h15.3v70.4h-14.199v.2zm-.601-23.3c0-1.5-.3-2.9-.8-4.4-.5-1.4-1.3-2.7-2.2-3.8-1-1.1-2.1-2-3.5-2.7-1.4-.7-2.9-1-4.7-1-1.8 0-3.4.3-4.8 1s-2.499 1.6-3.399 2.7c-.9 1.1-1.601 2.3-2.101 3.8-.5 1.4-.7 2.9-.7 4.4 0 1.5.2 3 .7 4.4.5 1.5 1.201 2.7 2.101 3.9.9 1.1 2.099 2 3.399 2.7 1.4.7 2.9 1 4.8 1 1.7 0 3.3-.3 4.7-1 1.4-.7 2.5-1.6 3.5-2.7s1.7-2.4 2.2-3.8c.5-1.5.8-3 .8-4.5zM606.1 298.6v-25.1c0-1.3-.1-2.5-.3-3.7-.2-1.2-.5-2.2-1.1-3.1-.5-.9-1.2-1.6-2.1-2.1-.9-.5-2-.8-3.3-.8-2.7 0-4.7.9-6.1 2.8-1.4 1.9-2.1 4.2-2.1 7v25h-15.2v-70.2H591v29.8h.2c1.1-1.9 2.7-3.5 5-5s5-2.2 8.3-2.2c3.2 0 5.8.6 7.9 1.7 2.1 1.1 3.9 2.6 5.2 4.3 1.3 1.8 2.3 3.8 2.9 6.1.6 2.3.9 4.6.9 6.9v28.6h-15.3zM527.4 246.7l6.5-14h41.8l-9.5 14h-8.7v51.7h-15v-51.7h-15.1z"/>
    <path fill="#fff" d="M513.2 263.4l20.8-30.8h-21.3L502 249.4l-10.7-16.7-23.2-2.6v38.5c0 3.6-.7 6.5-2 8.7-.1.2-.2.4-.3.5-.2.3-.4.5-.6.8-.2.2-.4.5-.6.7l-.4.4c-.4.4-.9.8-1.4 1.1-.2.1-.3.2-.5.3-1.9 1.1-4.2 1.6-6.9 1.6-3.8 0-7-1.2-9.2-3.6-.6-.7-1.2-1.5-1.6-2.3l-.3-.6c-1-2.1-1.5-4.8-1.5-8.1v-38l-19.2 2.8v35.7c0 2 .1 3.9.3 5.7.2 1.8.5 3.5.9 5.1.4 1.6.9 3.1 1.5 4.5 1 2.3 2.2 4.3 3.6 6 .4.4.7.9 1.1 1.3 2.8 3 6.4 5.2 10.6 6.6.2.1.5.2.7.2 3.8 1.2 8.1 1.8 12.8 1.8h2.9c.3 0 .6 0 .9-.1h.5c.3 0 .5 0 .8-.1.2 0 .4 0 .6-.1.2 0 .4-.1.7-.1.4-.1.8-.1 1.3-.2h.3c.4-.1.7-.1 1.1-.2.1 0 .2 0 .4-.1.3-.1.7-.1 1-.2.1 0 .2 0 .3-.1.4-.1.9-.2 1.3-.3h.1c.4-.1.8-.2 1.2-.4.1 0 .2-.1.3-.1.3-.1.5-.2.8-.3.1 0 .2-.1.4-.1.3-.1.5-.2.8-.3.1 0 .2-.1.3-.1.2-.1.5-.2.7-.3.1 0 .2-.1.3-.1.2-.1.5-.2.7-.4.1 0 .2-.1.3-.1.3-.1.5-.3.7-.4.1 0 .2-.1.2-.1.3-.1.5-.3.7-.4.1 0 .1-.1.2-.1.3-.2.5-.3.8-.5.1 0 .1-.1.2-.1.3-.2.5-.4.7-.5l.1-.1c.3-.2.5-.4.7-.6l.1-.1c.3-.2.5-.4.7-.7l.1-.1.7-.7.1-.1c.2-.3.5-.5.7-.8.2-.3.5-.5.7-.8.2-.3.5-.6.7-.9.2-.3.4-.6.7-.9 0 0-2.6 9.1-16.8 13.2l-1.1 1.7h21.3l15.6-24 13.6 19.9h21.8l-23.1-35.6zm-25.9 5.2v-6.7l-9.4-17.6 9.5 13.9 3.5 5.1-3.6 5.3z"/>
    <circle cx="180" cy="180" r="180" fill="#0F1D4F"/>
    <path fill="url(#a)" d="M180 360c99.4 0 180-80.6 180-180 0-30.8-7.8-59.9-21.4-85.2L120 349.7c18.8 6.7 39 10.3 60 10.3z" style="mix-blend-mode:screen"/>
    <path fill="url(#b)" d="M32.6 76.8C12.1 106 0 141.6 0 180c0 99.4 80.6 180 180 180 17.3 0 34-2.5 49.8-7L32.6 76.8z" style="mix-blend-mode:screen"/>
    <path fill="url(#c)" d="M154.4 1.8L62 315.9c31.6 27.5 72.8 44.1 118 44.1 45.1 0 86.4-16.7 118-44.1l-92.4-314C197.2.7 188.7 0 180 0c-8.7 0-17.2.7-25.6 1.8z" style="mix-blend-mode:screen"/>
    <defs>
        <linearGradient id="a" x1="120.014" x2="360" y1="227.377" y2="227.377" gradientUnits="userSpaceOnUse">
            <stop stop-color="#2EE3EC"/>
            <stop offset="1" stop-color="#098BD5"/>
        </linearGradient>
        <linearGradient id="b" x2="229.827" y1="218.396" y2="218.396" gradientUnits="userSpaceOnUse">
            <stop stop-color="#2EE3EC"/>
            <stop offset="1" stop-color="#098BD5"/>
        </linearGradient>
        <linearGradient id="c" x1="62.033" x2="297.968" y1="180" y2="180" gradientUnits="userSpaceOnUse">
            <stop stop-color="#2EE3EC"/>
            <stop offset="1" stop-color="#098BD5"/>
        </linearGradient>
    </defs>
</svg>
